<svg width="152" height="56" viewBox="0 0 152 56" fill="none" xmlns="http://www.w3.org/2000/svg">
<path d="M41.9918 42.2647H41.929C41.929 42.2647 41.9918 41.8777 41.9918 41.5231V40.5236C41.9918 39.653 41.5525 39.1694 40.7052 39.1694H39.4814C38.6341 39.1694 38.1948 39.653 38.1948 40.5236V54.2589C38.1948 55.1617 38.6341 55.6131 39.4814 55.6131H40.8621C41.7094 55.6131 42.1487 55.1617 42.1487 54.2589V48.2295C42.1487 45.4889 43.4667 42.5226 46.2909 42.5226C48.1737 42.5226 48.4247 44.038 48.4247 45.8113V54.2589C48.4247 55.1617 48.8954 55.6131 49.7427 55.6131H51.1234C51.9707 55.6131 52.41 55.1617 52.41 54.2589V48.2295C52.41 45.3599 53.7907 42.5226 56.4894 42.5226C58.3408 42.5226 58.686 43.9413 58.686 45.8113V54.2589C58.686 55.1617 59.1253 55.6131 60.004 55.6131H61.3533C62.2006 55.6131 62.6713 55.1617 62.6713 54.2589V45.0375C62.6713 40.717 60.7571 38.7825 57.4308 38.7825C54.9204 38.7825 52.8179 40.4591 51.9707 42.1679H51.9079C51.2489 39.9432 49.6486 38.7825 47.2323 38.7825C44.7219 38.7825 42.7763 40.6525 41.9918 42.2647ZM18.2318 54.2589V34.075C18.2318 33.2045 17.7925 32.7209 16.9453 32.7209H15.5332C14.6545 32.7209 14.2152 33.2045 14.2152 34.075V42.1975C12.6566 43.0654 10.9961 43.5302 9.29636 43.5302C7.46323 43.5302 5.67718 42.9821 4.01665 41.9825V34.075C4.01665 33.2045 3.57733 32.7209 2.73007 32.7209H1.28658C0.439321 32.7209 0 33.2045 0 34.075V54.2589C0 55.1617 0.439321 55.6131 1.28658 55.6131H2.73007C3.57733 55.6131 4.01665 55.1617 4.01665 54.2589V45.9296C5.70595 46.7732 7.48415 47.2327 9.29636 47.2327C10.9804 47.23 12.6357 46.8377 14.2152 46.1042V54.2562C14.2152 55.159 14.6545 55.6104 15.5332 55.6104H16.9453C17.7925 55.6131 18.2318 55.1617 18.2318 54.2589ZM32.9831 47.3912C32.9831 50.4543 30.8179 52.5178 28.2133 52.5178C25.6088 52.5178 23.4749 50.4543 23.4749 47.3912C23.4749 44.3604 25.6088 42.2647 28.2133 42.2647C30.8179 42.2647 32.9831 44.3604 32.9831 47.3912ZM28.2133 38.7825C23.3494 38.7825 19.4269 42.3614 19.4269 47.3912C19.4269 52.4533 23.3494 56 28.2133 56C33.0772 56 37.0311 52.4533 37.0311 47.3912C37.0311 42.3614 33.0772 38.7825 28.2133 38.7825ZM60.4015 23.6929C58.0898 26.6539 54.3634 28.4245 50.4331 28.4272C46.4949 28.4245 42.7632 26.6485 40.4516 23.6768C40.2737 23.4484 40.1927 23.1636 40.2241 22.8707C40.2554 22.5752 40.3967 22.3146 40.6215 22.1319C40.8124 21.976 41.0426 21.8927 41.2884 21.8927C41.6179 21.8927 41.9238 22.0432 42.1252 22.3065C44.0315 24.765 47.1381 26.2293 50.4331 26.2293C53.7227 26.2293 56.8241 24.7677 58.7305 22.3199C58.9344 22.0566 59.2404 21.9062 59.5647 21.9062C59.8079 21.9062 60.0406 21.9894 60.2315 22.148C60.4538 22.3307 60.595 22.5913 60.6264 22.8869C60.6604 23.177 60.5793 23.4645 60.4015 23.6929ZM66.735 16.3389C66.735 15.7908 66.5049 15.2964 66.1362 14.9552L51.6673 0.548124C51.3405 0.209577 50.8855 0 50.3834 0C49.8839 0 49.4315 0.20689 49.102 0.54275L43.6628 5.99175V5.08089C43.6628 4.04913 42.8495 3.21351 41.8454 3.21351H39.7821C38.778 3.21351 37.9647 4.04913 37.9647 5.08089L37.9621 11.7041L34.6567 15.017C34.3272 15.3555 34.1206 15.823 34.1206 16.3416C34.1206 17.3734 34.9339 18.209 35.9381 18.209H37.8575L37.8601 30.7406C37.8601 31.7697 38.6734 32.608 39.6775 32.608H49.1883H61.0944C62.0986 32.608 62.9119 31.7724 62.9119 30.7406L62.9223 18.2117H64.9202C65.9218 18.2063 66.735 17.3707 66.735 16.3389ZM67.394 46.4911C67.2083 44.2771 68.236 42.493 70.2051 41.953C71.9598 41.4693 73.602 42.4178 74.2427 44.6049C73.2673 44.4733 72.1063 44.5646 70.7804 44.93C69.4337 45.3008 68.2883 45.8409 67.394 46.4911ZM79.138 52.413C79.7002 51.8246 79.6584 51.169 79.1066 50.551L78.581 50.0297C78.0005 49.4225 77.6658 49.3527 77.0042 49.9357C76.3975 50.6047 75.2809 51.7198 73.8531 52.096C71.1256 52.816 68.8819 51.6365 67.9275 48.9228L67.9379 48.9201C69.3003 49.1296 71.1465 48.9711 73.2464 48.3908C75.5293 47.762 77.1061 46.9022 77.9377 45.986L77.9325 45.9887C78.2986 45.634 78.4633 45.0993 78.3378 44.6211C77.2003 40.2602 73.908 37.7292 69.5148 38.9383C64.8757 40.2146 62.5562 44.5243 63.8324 49.4145C65.0091 53.9311 69.1827 56.8544 74.3055 55.4438C76.7322 54.7748 78.3064 53.34 79.138 52.413ZM84.3785 38.7502C84.3785 37.2026 85.6964 36.1708 87.7675 36.1708C89.4934 36.1708 90.7173 36.8801 91.6273 37.4283C92.2863 37.7829 92.9453 37.9119 93.416 36.9769L93.9808 35.9129C94.3574 35.2035 94.2632 34.5909 93.5729 34.075C92.6314 33.3657 90.4662 32.3339 87.8303 32.3339C83.594 32.3339 80.3305 34.9456 80.3305 38.9759C80.3305 46.1015 90.7173 45.1987 90.7173 49.5515C90.7173 51.0991 89.4621 52.1631 87.391 52.1631C85.1944 52.1631 83.594 51.0024 82.8722 50.4865C82.0877 50.0351 81.5543 50.0674 81.0522 50.7767L80.3618 51.8085C79.7342 52.679 80.048 53.2271 80.5501 53.6785C81.6484 54.5491 84.2216 56 87.391 56C92.0666 56 94.7653 52.937 94.7653 49.2291C94.7653 41.9422 84.3785 43.0385 84.3785 38.7502ZM106.742 45.3519C105.819 45.0053 104.663 44.8387 103.295 44.8978C101.902 44.9596 100.67 45.2337 99.6606 45.6689C99.9456 43.4657 101.326 41.953 103.361 41.8616C105.176 41.781 106.58 43.0734 106.742 45.3519ZM110.74 46.2762C110.549 41.7649 107.869 38.5621 103.322 38.7663C98.5257 38.9813 95.3537 42.6731 95.5681 47.7325C95.7668 52.4023 99.2265 56.1854 104.525 55.9463C107.032 55.8334 108.873 54.7828 109.877 54.0601C110.549 53.6114 110.646 52.9611 110.241 52.2357L109.838 51.607C109.399 50.8842 109.088 50.7445 108.319 51.1663C107.587 51.6822 106.261 52.5232 104.789 52.5742C101.972 52.671 100.035 51.0185 99.6737 48.1597H99.6841C100.971 48.6702 102.804 48.9228 104.977 48.826C107.338 48.7212 109.059 48.2322 110.063 47.5229H110.058C110.487 47.2596 110.761 46.7732 110.74 46.2762ZM121.58 41.6521V40.3946C121.58 39.4918 121.266 39.0404 120.387 39.0404C118.128 39.0404 116.37 41.2329 115.743 43.1997H115.68C115.68 43.1997 115.774 42.6838 115.774 42.0712V40.5236C115.774 39.653 115.304 39.1694 114.456 39.1694H113.232C112.385 39.1694 111.946 39.653 111.946 40.5236V54.2589C111.946 55.1617 112.385 55.6131 113.232 55.6131H114.613C115.46 55.6131 115.9 55.1617 115.9 54.2589V48.9711C115.9 45.9726 117.312 43.0062 120.23 43.0062C121.078 43.0062 121.58 42.5226 121.58 41.6521ZM137.531 40.717C137.845 39.782 137.437 39.1694 136.464 39.1694H134.989C134.236 39.1694 133.734 39.524 133.514 40.2979L130.533 49.358C130.22 50.3253 129.969 51.8407 129.969 51.8407H129.906C129.906 51.8407 129.623 50.3253 129.31 49.358L126.328 40.2979C126.109 39.524 125.607 39.1694 124.854 39.1694H123.379C122.406 39.1694 122.029 39.782 122.343 40.717L127.238 54.5168C127.458 55.2907 127.96 55.6131 128.713 55.6131H131.224C131.977 55.6131 132.448 55.2907 132.699 54.5168L137.531 40.717ZM147.999 45.3519C147.076 45.0053 145.92 44.8387 144.552 44.8978C143.159 44.9596 141.927 45.2337 140.918 45.6689C141.203 43.4657 142.581 41.953 144.618 41.8616C146.433 41.781 147.837 43.0734 147.999 45.3519ZM151.997 46.2762C151.806 41.7649 149.126 38.5621 144.579 38.7663C139.783 38.9813 136.608 42.6731 136.825 47.7325C137.024 52.4023 140.483 56.1854 145.781 55.9463C148.289 55.8334 150.13 54.7828 151.134 54.0601C151.806 53.6114 151.903 52.9611 151.498 52.2357L151.095 51.607C150.656 50.8842 150.345 50.7445 149.576 51.1663C148.844 51.6822 147.518 52.5232 146.046 52.5742C143.229 52.671 141.292 51.0185 140.928 48.1597H140.939C142.225 48.6702 144.058 48.9228 146.231 48.826C148.593 48.7212 150.313 48.2322 151.317 47.5229H151.312C151.744 47.2596 152.018 46.7732 151.997 46.2762Z" fill="#E7342C"/>
<path d="M149.762 32.334C151.006 32.334 151.997 33.3711 151.997 34.6635C151.997 35.9559 151.006 36.9984 149.762 36.9984C148.54 36.9984 147.549 35.9559 147.549 34.6635C147.552 33.3711 148.543 32.334 149.762 32.334ZM149.762 36.4852C150.716 36.4852 151.446 35.6845 151.446 34.6662C151.446 33.6532 150.716 32.8525 149.762 32.8525C148.825 32.8525 148.101 33.6532 148.101 34.6662C148.104 35.6818 148.828 36.4852 149.762 36.4852ZM148.988 33.7526C148.988 33.5807 149.074 33.4866 149.249 33.4866H149.929C150.381 33.4866 150.672 33.7795 150.672 34.2255C150.672 34.5882 150.431 34.7871 150.274 34.8301V34.8435C150.274 34.8435 150.3 34.8704 150.355 34.9778L150.622 35.5072C150.716 35.6926 150.659 35.8188 150.491 35.8188H150.41C150.261 35.8188 150.17 35.7544 150.112 35.6227L149.814 34.9617H149.511V35.5528C149.511 35.7302 149.437 35.8188 149.27 35.8188H149.226C149.058 35.8188 148.985 35.7302 148.985 35.5528V33.7526H148.988ZM149.806 34.5748C150.015 34.5748 150.136 34.4405 150.136 34.2255C150.136 34.0025 150.018 33.8816 149.819 33.8816H149.516V34.5748H149.806Z" fill="#E7342C"/>
</svg>
